# xmcd
#
# Track frame offsets:
#	209
#	20801
#	47008
#	66783
#	91172
#	113380
#	131700
#	160893
#	180816
#	206638
#	223044
#	242378
#
# Disc length: 3516
#
# Revision: 5
# Processed by: cddbd v1.5.1PL0 Copyright (c) Steve Scherf et al.
# Submitted via: ExactAudioCopy v0.95a5
# Normalized: r4:DSETVAR1
#
DISCID=990dba0c
DTITLE=Various Artist - Bluesmen and Rhythm Kings
DYEAR=1996
DGENRE=Blues
TTITLE0=Tyrone Davis - Something's Mighty Wrong
TTITLE1=Travis Haddix - Strange
TTITLE2=Ben E. King - You've Got All of Me
TTITLE3=Artie White - Dark End of the Street
TTITLE4=Jesse Graham - (When I) Think of My Baby
TTITLE5=Nappy Brown - Let Love Take Care (of the Rest)
TTITLE6=L. V. Johnson - It's So Cold and Mean (Drug Scene)
TTITLE7=Vernon Garrett - You Don't Know Nothin' About Love
TTITLE8=Blues Boy Willie - Where Is Leroy
TTITLE9=Willie Clayton - I've Been Loving You Too Long To Stop Now
TTITLE10=Dicky Williams - Man
TTITLE11=Kip Anderson - She Called Me Baby
EXTD=LABEL =Ichiban Blues\nID =ICH1191-2\nUPC =019011-1191-20\nCOPYRIGHT =1996
EXTT0=
EXTT1=
EXTT2=
EXTT3=
EXTT4=
EXTT5=
EXTT6=
EXTT7=
EXTT8=
EXTT9=
EXTT10=
EXTT11=
PLAYORDER=
